<svg width="21" height="20" viewBox="0 0 21 20" fill="none" xmlns="http://www.w3.org/2000/svg">
<g clip-path="url(#clip0_147_1658)">
<path d="M8.10828 19.5833C8.11047 18.9497 8.36316 18.3426 8.81121 17.8946C9.25926 17.4465 9.86631 17.1938 10.4999 17.1917C11.1336 17.1938 11.7406 17.4465 12.1887 17.8946C12.6367 18.3426 12.8894 18.9497 12.8916 19.5833" stroke="black" stroke-width="1.5" stroke-miterlimit="10"/>
<path d="M10.5 15.5917C11.379 15.5917 12.0917 14.879 12.0917 14C12.0917 13.1209 11.379 12.4083 10.5 12.4083C9.62094 12.4083 8.90833 13.1209 8.90833 14C8.90833 14.879 9.62094 15.5917 10.5 15.5917Z" stroke="black" stroke-width="1.5" stroke-miterlimit="10"/>
<path d="M9.60828 6.20839C10.1798 5.97497 10.8201 5.97497 11.3916 6.20839" stroke="black" stroke-width="1.5" stroke-miterlimit="10"/>
<path d="M15.9833 6.20833C16.2673 6.09601 16.5695 6.0367 16.8749 6.03333C17.5093 6.03333 18.1176 6.2853 18.5661 6.73383C19.0146 7.18235 19.2666 7.79068 19.2666 8.42499" stroke="black" stroke-width="1.5" stroke-miterlimit="10"/>
<path d="M1.73329 8.42501C1.73219 8.11062 1.7933 7.79912 1.9131 7.50845C2.03291 7.21779 2.20903 6.95369 2.43134 6.73139C2.65364 6.50908 2.91774 6.33295 3.20841 6.21315C3.49907 6.09335 3.81057 6.03224 4.12496 6.03334C4.43037 6.03671 4.73259 6.09603 5.01662 6.20834" stroke="black" stroke-width="1.5" stroke-miterlimit="10"/>
<path d="M10.5 4.43333C11.379 4.43333 12.0917 3.72072 12.0917 2.84167C12.0917 1.96261 11.379 1.25 10.5 1.25C9.62094 1.25 8.90833 1.96261 8.90833 2.84167C8.90833 3.72072 9.62094 4.43333 10.5 4.43333Z" stroke="black" stroke-width="1.5" stroke-miterlimit="10"/>
<path d="M16.875 4.43333C17.754 4.43333 18.4667 3.72072 18.4667 2.84167C18.4667 1.96261 17.754 1.25 16.875 1.25C15.9959 1.25 15.2833 1.96261 15.2833 2.84167C15.2833 3.72072 15.9959 4.43333 16.875 4.43333Z" stroke="black" stroke-width="1.5" stroke-miterlimit="10"/>
<path d="M4.91663 13.9999C4.91882 13.3663 5.17151 12.7593 5.61956 12.3112C6.0676 11.8632 6.67466 11.6105 7.30829 11.6083C7.61752 11.6087 7.92353 11.671 8.20829 11.7916" stroke="black" stroke-width="1.5" stroke-miterlimit="10"/>
<path d="M12.7916 11.7916C13.0764 11.671 13.3824 11.6087 13.6916 11.6083C14.3239 11.6148 14.9285 11.8689 15.3756 12.316C15.8227 12.7631 16.0768 13.3676 16.0833 13.9999" stroke="black" stroke-width="1.5" stroke-miterlimit="10"/>
<path d="M7.30834 10.0167C8.18739 10.0167 8.90001 9.30409 8.90001 8.42504C8.90001 7.54599 8.18739 6.83337 7.30834 6.83337C6.42929 6.83337 5.71667 7.54599 5.71667 8.42504C5.71667 9.30409 6.42929 10.0167 7.30834 10.0167Z" stroke="black" stroke-width="1.5" stroke-miterlimit="10"/>
<path d="M13.6916 10.0167C14.5707 10.0167 15.2833 9.30409 15.2833 8.42504C15.2833 7.54599 14.5707 6.83337 13.6916 6.83337C12.8126 6.83337 12.1 7.54599 12.1 8.42504C12.1 9.30409 12.8126 10.0167 13.6916 10.0167Z" stroke="black" stroke-width="1.5" stroke-miterlimit="10"/>
<path d="M4.12499 4.43333C5.00405 4.43333 5.71666 3.72072 5.71666 2.84167C5.71666 1.96261 5.00405 1.25 4.12499 1.25C3.24594 1.25 2.53333 1.96261 2.53333 2.84167C2.53333 3.72072 3.24594 4.43333 4.12499 4.43333Z" stroke="black" stroke-width="1.5" stroke-miterlimit="10"/>
</g>
<defs>
<clipPath id="clip0_147_1658">
<rect width="20" height="20" fill="white" transform="translate(0.5)"/>
</clipPath>
</defs>
</svg>
