<svg width="30" height="30" viewBox="0 0 30 30" fill="none" xmlns="http://www.w3.org/2000/svg">
<path d="M5.625 5.62502C5.625 4.63046 6.02009 3.67663 6.72335 2.97337C7.42661 2.27011 8.38044 1.87502 9.375 1.87502C10.3696 1.87502 11.3234 2.27011 12.0267 2.97337C12.7299 3.67663 13.125 4.63046 13.125 5.62502C13.125 6.61958 12.7299 7.57341 12.0267 8.27667C11.3234 8.97993 10.3696 9.37502 9.375 9.37502C8.38044 9.37502 7.42661 8.97993 6.72335 8.27667C6.02009 7.57341 5.625 6.61958 5.625 5.62502ZM9.375 3.75002C8.87772 3.75002 8.40081 3.94756 8.04918 4.2992C7.69754 4.65083 7.5 5.12774 7.5 5.62502C7.5 6.1223 7.69754 6.59922 8.04918 6.95085C8.40081 7.30248 8.87772 7.50002 9.375 7.50002C9.87228 7.50002 10.3492 7.30248 10.7008 6.95085C11.0525 6.59922 11.25 6.1223 11.25 5.62502C11.25 5.12774 11.0525 4.65083 10.7008 4.2992C10.3492 3.94756 9.87228 3.75002 9.375 3.75002ZM18.3356 8.59502C17.9428 8.29538 17.6131 7.92108 17.3653 7.49361C17.1176 7.06614 16.9568 6.59393 16.8922 6.10412C16.8275 5.61431 16.8603 5.11655 16.9886 4.63945C17.1169 4.16234 17.3383 3.7153 17.6399 3.324C17.9415 2.9327 18.3175 2.60486 18.7462 2.35932C19.1749 2.11378 19.648 1.95537 20.1381 1.89321C20.6282 1.83104 21.1258 1.86634 21.6022 1.99708C22.0787 2.12782 22.5246 2.35141 22.9144 2.65502C23.6818 3.2689 24.1776 4.15951 24.295 5.13521C24.4125 6.11092 24.1422 7.09374 23.5424 7.8722C22.9426 8.65066 22.0611 9.16256 21.0877 9.29774C20.1143 9.43292 19.1249 9.18058 18.3356 8.59502ZM20.625 3.75002C20.1277 3.75002 19.6508 3.94756 19.2992 4.2992C18.9475 4.65083 18.75 5.12774 18.75 5.62502C18.75 6.1223 18.9475 6.59922 19.2992 6.95085C19.6508 7.30248 20.1277 7.50002 20.625 7.50002C21.1223 7.50002 21.5992 7.30248 21.9508 6.95085C22.3025 6.59922 22.5 6.1223 22.5 5.62502C22.5 5.12774 22.3025 4.65083 21.9508 4.2992C21.5992 3.94756 21.1223 3.75002 20.625 3.75002ZM4.6875 11.25H9.69375C9.4875 11.8369 9.375 12.4688 9.375 13.125H4.6875C4.43886 13.125 4.2004 13.2238 4.02459 13.3996C3.84877 13.5754 3.75 13.8139 3.75 14.0625C3.75 15.5944 4.35938 16.7306 5.32125 17.5031C5.76375 17.8594 6.29437 18.1463 6.89437 18.3563C6.45377 18.8246 6.11423 19.3786 5.89687 19.9838C5.26711 19.7317 4.67771 19.3887 4.1475 18.9656C2.7375 17.8313 1.875 16.155 1.875 14.0625C1.875 13.3166 2.17132 12.6012 2.69876 12.0738C3.22621 11.5463 3.94158 11.25 4.6875 11.25ZM11.7525 11.25C11.2552 12.1118 11.1206 13.1358 11.3784 14.0969C11.6361 15.0579 12.2651 15.8771 13.1269 16.3744C13.9887 16.8717 15.0127 17.0062 15.9737 16.7485C16.9347 16.4908 17.754 15.8618 18.2513 15C18.7485 14.1382 18.8831 13.1142 18.6254 12.1532C18.3676 11.1922 17.7387 10.3729 16.8769 9.87565C16.0151 9.37837 14.9911 9.2438 14.03 9.50154C13.069 9.75929 12.2498 10.3882 11.7525 11.25ZM14.58 11.2969C14.8547 11.2348 15.1399 11.2353 15.4144 11.2982C15.6889 11.3611 15.9458 11.4848 16.1661 11.6603C16.3864 11.8358 16.5645 12.0585 16.6872 12.312C16.8099 12.5655 16.8741 12.8434 16.875 13.125C16.875 13.27 16.8594 13.41 16.8281 13.545C16.7529 13.8711 16.5918 14.1711 16.3615 14.4139C16.1312 14.6567 15.8401 14.8334 15.5185 14.9258C15.1968 15.0181 14.8563 15.0227 14.5323 14.939C14.2083 14.8553 13.9126 14.6865 13.6758 14.4499C13.4391 14.2134 13.27 13.9178 13.1861 13.5939C13.1021 13.2699 13.1064 12.9294 13.1985 12.6077C13.2905 12.286 13.467 11.9948 13.7096 11.7643C13.9522 11.5338 14.254 11.3724 14.58 11.2969ZM24.6769 17.5031C24.2344 17.8594 23.7037 18.1463 23.1037 18.3563C23.5437 18.8248 23.8826 19.3788 24.0994 19.9838C24.7369 19.7231 25.3275 19.3838 25.8506 18.9656C27.2625 17.8313 28.125 16.155 28.125 14.0625C28.125 13.3166 27.8287 12.6012 27.3012 12.0738C26.7738 11.5463 26.0584 11.25 25.3125 11.25H20.3062C20.5125 11.8369 20.625 12.4688 20.625 13.125H25.3125C25.5611 13.125 25.7996 13.2238 25.9754 13.3996C26.1512 13.5754 26.25 13.8139 26.25 14.0625C26.25 15.5944 25.6388 16.7306 24.6769 17.5031ZM19.6875 18.75C20.4334 18.75 21.1488 19.0463 21.6762 19.5738C22.2037 20.1012 22.5 20.8166 22.5 21.5625C22.5 23.655 21.6394 25.3313 20.2275 26.4656C18.8381 27.5813 16.9744 28.125 15 28.125C13.0256 28.125 11.1619 27.5813 9.7725 26.4656C8.3625 25.3313 7.5 23.655 7.5 21.5625C7.49901 21.1929 7.57108 20.8267 7.71207 20.4851C7.85306 20.1434 8.06019 19.8329 8.32156 19.5716C8.58292 19.3102 8.89336 19.1031 9.23503 18.9621C9.57671 18.8211 9.94288 18.749 10.3125 18.75H19.6875ZM19.6875 20.625H10.3125C10.0639 20.625 9.8254 20.7238 9.64959 20.8996C9.47377 21.0754 9.375 21.3139 9.375 21.5625C9.375 23.0944 9.98438 24.2306 10.9462 25.0031C11.9325 25.7944 13.35 26.25 15 26.25C16.65 26.25 18.0675 25.7944 19.0537 25.0031C20.0156 24.2306 20.625 23.0944 20.625 21.5625C20.625 21.3139 20.5262 21.0754 20.3504 20.8996C20.1746 20.7238 19.9361 20.625 19.6875 20.625Z" fill="black"/>
</svg>
