<svg width="21" height="20" viewBox="0 0 21 20" fill="none" xmlns="http://www.w3.org/2000/svg">
<path d="M16.0667 1.23328H4.93333C4.08906 1.23328 3.27937 1.56866 2.68238 2.16565C2.08539 2.76264 1.75 3.57234 1.75 4.41661V12.3666C1.75 13.2109 2.08539 14.0206 2.68238 14.6176C3.27937 15.2146 4.08906 15.5499 4.93333 15.5499H8.11667L10.5 17.9333L12.8833 15.5499H16.0667C16.9109 15.5499 17.7206 15.2146 18.3176 14.6176C18.9146 14.0206 19.25 13.2109 19.25 12.3666V4.41661C19.25 3.57234 18.9146 2.76264 18.3176 2.16565C17.7206 1.56866 16.9109 1.23328 16.0667 1.23328Z" stroke="black" stroke-width="1.5" stroke-miterlimit="10"/>
</svg>
